M48
; DRILL file {KiCad 7.0.10-148-g62bb553460} date Wed Sep  4 12:39:16 2024
; FORMAT={-:-/ absolute / inch / decimal}
; #@! TF.CreationDate,2024-09-04T12:39:16+03:00
; #@! TF.GenerationSoftware,Kicad,Pcbnew,7.0.10-148-g62bb553460
; #@! TF.FileFunction,Plated,1,2,PTH
FMAT,2
INCH
; #@! TA.AperFunction,Plated,PTH,ViaDrill
T1C0.0157
; #@! TA.AperFunction,Plated,PTH,ViaDrill
T2C0.0197
; #@! TA.AperFunction,Plated,PTH,ComponentDrill
T3C0.0236
; #@! TA.AperFunction,Plated,PTH,ComponentDrill
T4C0.0315
; #@! TA.AperFunction,Plated,PTH,ComponentDrill
T5C0.0394
; #@! TA.AperFunction,Plated,PTH,ComponentDrill
T6C0.1260
%
G90
G05
T1
X3.248Y-3.5906
X3.5748Y-3.0698
X3.6037Y-3.0344
X3.7031Y-3.1062
X4.5498Y-3.836
X4.5695Y-3.3715
X4.5852Y-3.6037
X4.9094Y-4.5984
X5.1929Y-2.7717
X5.2126Y-2.815
X5.3819Y-2.7717
X5.4921Y-2.815
X6.0729Y-3.2696
X6.0764Y-3.3189
X6.7067Y-3.3681
X6.7874Y-3.4803
X6.7933Y-3.6988
X6.8248Y-3.4016
X6.8268Y-3.4488
X7.0512Y-3.126
X7.063Y-2.7835
X7.1457Y-3.2972
X7.1457Y-3.378
X7.1593Y-3.8561
X7.1811Y-3.5276
X7.1811Y-3.6811
X7.1929Y-3.2687
X7.1929Y-3.4291
X7.1929Y-3.7984
X7.2441Y-3.2402
X7.2441Y-3.4803
X7.3642Y-3.4488
X7.3955Y-3.7387
X7.3957Y-3.4134
X7.3996Y-3.3583
X7.4272Y-3.4488
X7.5236Y-3.7165
X7.5335Y-3.7671
X7.5787Y-3.6063
X7.8031Y-3.8307
X7.8031Y-3.8937
T2
X7.811Y-3.4843
T4
X3.378Y-3.3583
X3.378Y-3.9583
X3.478Y-3.3583
X3.478Y-3.9583
X3.578Y-3.3583
X3.578Y-3.9583
X3.678Y-3.3583
X3.678Y-3.9583
X3.778Y-3.3583
X3.778Y-3.9583
X3.878Y-3.3583
X3.878Y-3.9583
X3.978Y-3.3583
X3.978Y-3.9583
X4.078Y-3.3583
X4.078Y-3.9583
X4.178Y-3.3583
X4.178Y-3.9583
X4.1862Y-3.4583
X4.1862Y-3.5583
X4.1862Y-3.6583
X4.1862Y-3.7583
X4.1862Y-3.8583
X4.689Y-2.9772
X4.689Y-3.3772
X4.6929Y-2.815
X4.6976Y-3.9764
X4.7638Y-3.6031
X4.7638Y-3.7031
X4.7638Y-3.8031
X4.9663Y-2.978
X4.9663Y-3.378
X5.0433Y-3.6031
X5.0433Y-3.7031
X5.0433Y-3.8031
X5.0929Y-2.815
X5.0976Y-3.9764
X5.2419Y-2.978
X5.2419Y-3.378
X5.3228Y-3.6031
X5.3228Y-3.7031
X5.3228Y-3.8031
X5.5175Y-2.978
X5.5175Y-3.378
X5.6024Y-3.6047
X5.6024Y-3.7047
X5.6024Y-3.8047
X6.2953Y-3.2787
X6.2953Y-3.3787
X6.2953Y-3.4787
X6.2953Y-3.5787
X6.2953Y-3.6787
X6.2953Y-3.7787
X6.3953Y-3.1787
X6.3953Y-3.2787
X6.3953Y-3.3787
X6.3953Y-3.4787
X6.3953Y-3.5787
X6.3953Y-3.6787
X6.3953Y-3.7787
X6.3953Y-3.8787
X6.4953Y-3.1787
X6.4953Y-3.2787
X6.4953Y-3.7787
X6.4953Y-3.8787
X6.5953Y-3.1787
X6.5953Y-3.2787
X6.5953Y-3.7787
X6.5953Y-3.8787
X6.6953Y-3.1787
X6.6953Y-3.2787
X6.6953Y-3.7787
X6.6953Y-3.8787
X6.7953Y-3.1787
X6.7953Y-3.2787
X6.7953Y-3.7787
X6.7953Y-3.8787
X6.8953Y-3.1787
X6.8953Y-3.2787
X6.8953Y-3.3787
X6.8953Y-3.4787
X6.8953Y-3.5787
X6.8953Y-3.6787
X6.8953Y-3.7787
X6.8953Y-3.8787
X6.9953Y-3.2787
X6.9953Y-3.3787
X6.9953Y-3.4787
X6.9953Y-3.5787
X6.9953Y-3.6787
X6.9953Y-3.7787
X7.1303Y-4.2057
X7.1303Y-4.3159
X7.213Y-4.3159
X7.3154Y-4.3159
X7.398Y-4.2057
X7.398Y-4.3159
T5
X2.3488Y-3.4299
X2.3488Y-3.5299
X2.3488Y-3.6299
X2.3488Y-3.7299
X2.3488Y-3.8299
X2.4488Y-3.4299
X2.4488Y-3.5299
X2.4488Y-3.6299
X2.4488Y-3.7299
X2.4488Y-3.8299
X2.6457Y-2.826
X2.6457Y-2.926
X2.6457Y-3.026
X2.6457Y-3.126
X3.4707Y-4.2415
X3.5252Y-4.3533
X3.5797Y-4.2415
X3.6343Y-4.3533
X3.678Y-2.815
X3.6888Y-4.2415
X3.7433Y-4.3533
X3.778Y-2.815
X3.7978Y-4.2415
X3.8524Y-4.3533
X3.878Y-2.815
X3.8921Y-2.5036
X3.8921Y-2.6036
X3.9069Y-4.2415
X3.978Y-2.815
X3.9921Y-2.5036
X3.9921Y-2.6036
X4.078Y-2.815
X4.0921Y-2.5036
X4.0921Y-2.6036
X4.178Y-2.815
X4.1921Y-2.5036
X4.1921Y-2.6036
X4.278Y-2.815
X4.2921Y-2.5036
X4.2921Y-2.6036
X4.378Y-2.815
X4.3921Y-2.5036
X4.3921Y-2.6036
X4.478Y-2.815
X4.4921Y-2.5036
X4.4921Y-2.6036
X4.578Y-2.815
X4.5921Y-2.5036
X4.5921Y-2.6036
X4.6921Y-2.5036
X4.6921Y-2.6036
X4.7921Y-2.5036
X4.7921Y-2.6036
X4.8921Y-2.5036
X4.8921Y-2.6036
X4.9921Y-2.5036
X4.9921Y-2.6036
X5.0124Y-4.3813
X5.0124Y-4.5373
X5.0575Y-4.4593
X5.0921Y-2.5036
X5.0921Y-2.6036
X5.1026Y-4.3813
X5.1026Y-4.5373
X5.1476Y-4.4593
X5.1921Y-2.5036
X5.1921Y-2.6036
X5.1927Y-4.3813
X5.1927Y-4.5373
X5.2378Y-4.4593
X5.2829Y-4.3813
X5.2829Y-4.5373
X5.2921Y-2.5036
X5.2921Y-2.6036
X5.328Y-4.4593
X5.373Y-4.3813
X5.373Y-4.5373
X5.3921Y-2.5036
X5.3921Y-2.6036
X5.4181Y-4.4593
X5.4921Y-2.5036
X5.4921Y-2.6036
X5.5921Y-2.5036
X5.5921Y-2.6036
X5.6921Y-2.5036
X5.6921Y-2.6036
X5.7921Y-2.5036
X5.7921Y-2.6036
X5.8921Y-2.5036
X5.8921Y-2.6036
X5.911Y-3.302
X5.911Y-3.402
X5.911Y-3.502
X5.911Y-3.602
X5.9921Y-2.5036
X5.9921Y-2.6036
X6.0921Y-2.5036
X6.0921Y-2.6036
X6.1921Y-2.5036
X6.1921Y-2.6036
X6.2921Y-2.5036
X6.2921Y-2.6036
X6.2941Y-2.7839
X6.2941Y-2.8839
X6.3921Y-2.5036
X6.3921Y-2.6036
X6.3941Y-2.7839
X6.3941Y-2.8839
X6.4921Y-2.5036
X6.4921Y-2.6036
X6.4941Y-2.7839
X6.4941Y-2.8839
X6.5921Y-2.5036
X6.5921Y-2.6036
X6.5941Y-2.7839
X6.5941Y-2.8839
X6.6921Y-2.5036
X6.6921Y-2.6036
X6.6941Y-2.7839
X6.6941Y-2.8839
X6.7921Y-2.5036
X6.7921Y-2.6036
X6.7941Y-2.7839
X6.7941Y-2.8839
X6.8921Y-2.5036
X6.8921Y-2.6036
X6.8941Y-2.7839
X6.8941Y-2.8839
X6.9921Y-2.5036
X6.9921Y-2.6036
X6.9941Y-2.7839
X6.9941Y-2.8839
X7.6646Y-2.8935
X7.6646Y-2.9935
X7.6646Y-3.0935
X7.7646Y-2.8935
X7.7646Y-2.9935
X7.7646Y-3.0935
T6
X3.1967Y-4.2974
X4.1809Y-4.2974
X4.711Y-4.4621
X5.6953Y-4.4621
T3
G00X4.8268Y-3.062
M15
G01X4.8268Y-3.0876
M16
G05
G00X4.8268Y-3.1604
M15
G01X4.8268Y-3.186
M16
G05
G00X4.8268Y-3.2589
M15
G01X4.8268Y-3.2844
M16
G05
G00X5.1041Y-3.062
M15
G01X5.1041Y-3.0876
M16
G05
G00X5.1041Y-3.1604
M15
G01X5.1041Y-3.186
M16
G05
G00X5.1041Y-3.2589
M15
G01X5.1041Y-3.2844
M16
G05
G00X5.3797Y-3.062
M15
G01X5.3797Y-3.0876
M16
G05
G00X5.3797Y-3.1604
M15
G01X5.3797Y-3.186
M16
G05
G00X5.3797Y-3.2589
M15
G01X5.3797Y-3.2844
M16
G05
G00X5.6553Y-3.062
M15
G01X5.6553Y-3.0876
M16
G05
G00X5.6553Y-3.1604
M15
G01X5.6553Y-3.186
M16
G05
G00X5.6553Y-3.2589
M15
G01X5.6553Y-3.2844
M16
G05
T5
G00X2.7536Y-4.1132
M15
G01X2.8324Y-4.1132
M16
G05
G00X2.7536Y-4.3494
M15
G01X2.8324Y-4.3494
M16
G05
G00X2.9781Y-4.2707
M15
G01X2.9781Y-4.1919
M16
G05
G00X5.9591Y-4.2939
M15
G01X5.9197Y-4.2939
M16
G05
G00X5.9591Y-4.5105
M15
G01X5.9197Y-4.5105
M16
G05
G00X6.0378Y-4.1483
M15
G01X5.9984Y-4.1483
M16
G05
G00X6.0378Y-4.3648
M15
G01X5.9984Y-4.3648
M16
G05
G00X6.0378Y-4.605
M15
G01X5.9984Y-4.605
M16
G05
G00X6.3213Y-4.2939
M15
G01X6.2819Y-4.2939
M16
G05
G00X6.3213Y-4.5105
M15
G01X6.2819Y-4.5105
M16
G05
G00X6.4Y-4.1483
M15
G01X6.3606Y-4.1483
M16
G05
G00X6.4Y-4.3648
M15
G01X6.3606Y-4.3648
M16
G05
G00X6.4Y-4.605
M15
G01X6.3606Y-4.605
M16
G05
G00X6.6894Y-4.2939
M15
G01X6.65Y-4.2939
M16
G05
G00X6.6894Y-4.5105
M15
G01X6.65Y-4.5105
M16
G05
G00X6.7681Y-4.1483
M15
G01X6.7287Y-4.1483
M16
G05
G00X6.7681Y-4.3648
M15
G01X6.7287Y-4.3648
M16
G05
G00X6.7681Y-4.605
M15
G01X6.7287Y-4.605
M16
G05
G00X6.9945Y-4.3986
M15
G01X6.9945Y-4.4577
M16
G05
G00X7.2248Y-4.4596
M15
G01X7.3035Y-4.4596
M16
G05
G00X7.5339Y-4.3986
M15
G01X7.5339Y-4.4577
M16
G05
M30
