%TF.GenerationSoftware,KiCad,Pcbnew,7.0.9-134-g1fdf7d0cf4*%
%TF.CreationDate,2024-01-08T16:26:38+03:00*%
%TF.ProjectId,Pentagon128_InterfaceBoard,50656e74-6167-46f6-9e31-32385f496e74,rev?*%
%TF.SameCoordinates,Original*%
%TF.FileFunction,Legend,Bot*%
%TF.FilePolarity,Positive*%
%FSLAX46Y46*%
G04 Gerber Fmt 4.6, Leading zero omitted, Abs format (unit mm)*
G04 Created by KiCad (PCBNEW 7.0.9-134-g1fdf7d0cf4) date 2024-01-08 16:26:38*
%MOMM*%
%LPD*%
G01*
G04 APERTURE LIST*
%ADD10C,0.150000*%
%ADD11C,0.120000*%
G04 APERTURE END LIST*
D10*
X85794580Y-77408333D02*
X85842200Y-77360714D01*
X85842200Y-77360714D02*
X85889819Y-77217857D01*
X85889819Y-77217857D02*
X85889819Y-77122619D01*
X85889819Y-77122619D02*
X85842200Y-76979762D01*
X85842200Y-76979762D02*
X85746961Y-76884524D01*
X85746961Y-76884524D02*
X85651723Y-76836905D01*
X85651723Y-76836905D02*
X85461247Y-76789286D01*
X85461247Y-76789286D02*
X85318390Y-76789286D01*
X85318390Y-76789286D02*
X85127914Y-76836905D01*
X85127914Y-76836905D02*
X85032676Y-76884524D01*
X85032676Y-76884524D02*
X84937438Y-76979762D01*
X84937438Y-76979762D02*
X84889819Y-77122619D01*
X84889819Y-77122619D02*
X84889819Y-77217857D01*
X84889819Y-77217857D02*
X84937438Y-77360714D01*
X84937438Y-77360714D02*
X84985057Y-77408333D01*
X84889819Y-78265476D02*
X84889819Y-78075000D01*
X84889819Y-78075000D02*
X84937438Y-77979762D01*
X84937438Y-77979762D02*
X84985057Y-77932143D01*
X84985057Y-77932143D02*
X85127914Y-77836905D01*
X85127914Y-77836905D02*
X85318390Y-77789286D01*
X85318390Y-77789286D02*
X85699342Y-77789286D01*
X85699342Y-77789286D02*
X85794580Y-77836905D01*
X85794580Y-77836905D02*
X85842200Y-77884524D01*
X85842200Y-77884524D02*
X85889819Y-77979762D01*
X85889819Y-77979762D02*
X85889819Y-78170238D01*
X85889819Y-78170238D02*
X85842200Y-78265476D01*
X85842200Y-78265476D02*
X85794580Y-78313095D01*
X85794580Y-78313095D02*
X85699342Y-78360714D01*
X85699342Y-78360714D02*
X85461247Y-78360714D01*
X85461247Y-78360714D02*
X85366009Y-78313095D01*
X85366009Y-78313095D02*
X85318390Y-78265476D01*
X85318390Y-78265476D02*
X85270771Y-78170238D01*
X85270771Y-78170238D02*
X85270771Y-77979762D01*
X85270771Y-77979762D02*
X85318390Y-77884524D01*
X85318390Y-77884524D02*
X85366009Y-77836905D01*
X85366009Y-77836905D02*
X85461247Y-77789286D01*
X96254819Y-77475595D02*
X97064342Y-77475595D01*
X97064342Y-77475595D02*
X97159580Y-77523214D01*
X97159580Y-77523214D02*
X97207200Y-77570833D01*
X97207200Y-77570833D02*
X97254819Y-77666071D01*
X97254819Y-77666071D02*
X97254819Y-77856547D01*
X97254819Y-77856547D02*
X97207200Y-77951785D01*
X97207200Y-77951785D02*
X97159580Y-77999404D01*
X97159580Y-77999404D02*
X97064342Y-78047023D01*
X97064342Y-78047023D02*
X96254819Y-78047023D01*
X96254819Y-78427976D02*
X96254819Y-79047023D01*
X96254819Y-79047023D02*
X96635771Y-78713690D01*
X96635771Y-78713690D02*
X96635771Y-78856547D01*
X96635771Y-78856547D02*
X96683390Y-78951785D01*
X96683390Y-78951785D02*
X96731009Y-78999404D01*
X96731009Y-78999404D02*
X96826247Y-79047023D01*
X96826247Y-79047023D02*
X97064342Y-79047023D01*
X97064342Y-79047023D02*
X97159580Y-78999404D01*
X97159580Y-78999404D02*
X97207200Y-78951785D01*
X97207200Y-78951785D02*
X97254819Y-78856547D01*
X97254819Y-78856547D02*
X97254819Y-78570833D01*
X97254819Y-78570833D02*
X97207200Y-78475595D01*
X97207200Y-78475595D02*
X97159580Y-78427976D01*
D11*
%TO.C,C6*%
X88345000Y-76863748D02*
X88345000Y-78286252D01*
X86525000Y-76863748D02*
X86525000Y-78286252D01*
%TO.C,U3*%
X95820000Y-78237500D02*
X95820000Y-76037500D01*
X95820000Y-78237500D02*
X95820000Y-80437500D01*
X89050000Y-78237500D02*
X89050000Y-74637500D01*
X89050000Y-78237500D02*
X89050000Y-80437500D01*
%TD*%
M02*
