%TF.GenerationSoftware,KiCad,Pcbnew,7.0.9-134-g1fdf7d0cf4*%
%TF.CreationDate,2024-01-08T16:26:38+03:00*%
%TF.ProjectId,Pentagon128_InterfaceBoard,50656e74-6167-46f6-9e31-32385f496e74,rev?*%
%TF.SameCoordinates,Original*%
%TF.FileFunction,Soldermask,Bot*%
%TF.FilePolarity,Negative*%
%FSLAX46Y46*%
G04 Gerber Fmt 4.6, Leading zero omitted, Abs format (unit mm)*
G04 Created by KiCad (PCBNEW 7.0.9-134-g1fdf7d0cf4) date 2024-01-08 16:26:38*
%MOMM*%
%LPD*%
G01*
G04 APERTURE LIST*
G04 Aperture macros list*
%AMRoundRect*
0 Rectangle with rounded corners*
0 $1 Rounding radius*
0 $2 $3 $4 $5 $6 $7 $8 $9 X,Y pos of 4 corners*
0 Add a 4 corners polygon primitive as box body*
4,1,4,$2,$3,$4,$5,$6,$7,$8,$9,$2,$3,0*
0 Add four circle primitives for the rounded corners*
1,1,$1+$1,$2,$3*
1,1,$1+$1,$4,$5*
1,1,$1+$1,$6,$7*
1,1,$1+$1,$8,$9*
0 Add four rect primitives between the rounded corners*
20,1,$1+$1,$2,$3,$4,$5,0*
20,1,$1+$1,$4,$5,$6,$7,0*
20,1,$1+$1,$6,$7,$8,$9,0*
20,1,$1+$1,$8,$9,$2,$3,0*%
G04 Aperture macros list end*
%ADD10C,3.000000*%
%ADD11C,1.600000*%
%ADD12O,1.600000X1.600000*%
%ADD13R,1.422400X1.422400*%
%ADD14C,1.422400*%
%ADD15R,2.000000X1.850000*%
%ADD16RoundRect,0.370000X-0.630000X0.555000X-0.630000X-0.555000X0.630000X-0.555000X0.630000X0.555000X0*%
%ADD17RoundRect,0.250000X-0.600000X-0.600000X0.600000X-0.600000X0.600000X0.600000X-0.600000X0.600000X0*%
%ADD18C,1.700000*%
%ADD19R,1.700000X1.700000*%
%ADD20O,1.700000X1.700000*%
%ADD21O,2.800000X1.800000*%
%ADD22C,1.440000*%
%ADD23R,1.600000X1.600000*%
%ADD24O,2.000000X3.500000*%
%ADD25O,4.000000X2.000000*%
%ADD26C,4.000000*%
%ADD27RoundRect,0.400000X0.400000X-0.900000X0.400000X0.900000X-0.400000X0.900000X-0.400000X-0.900000X0*%
%ADD28RoundRect,0.400050X0.400050X-0.899950X0.400050X0.899950X-0.400050X0.899950X-0.400050X-0.899950X0*%
%ADD29RoundRect,0.400000X0.900000X-0.400000X0.900000X0.400000X-0.900000X0.400000X-0.900000X-0.400000X0*%
%ADD30RoundRect,0.393700X0.906300X-0.393700X0.906300X0.393700X-0.906300X0.393700X-0.906300X-0.393700X0*%
%ADD31R,3.500000X3.500000*%
%ADD32RoundRect,0.750000X1.000000X-0.750000X1.000000X0.750000X-1.000000X0.750000X-1.000000X-0.750000X0*%
%ADD33RoundRect,0.875000X0.875000X-0.875000X0.875000X0.875000X-0.875000X0.875000X-0.875000X-0.875000X0*%
%ADD34RoundRect,0.250000X-0.650000X0.412500X-0.650000X-0.412500X0.650000X-0.412500X0.650000X0.412500X0*%
%ADD35C,2.850000*%
%ADD36RoundRect,0.249999X0.525001X0.525001X-0.525001X0.525001X-0.525001X-0.525001X0.525001X-0.525001X0*%
%ADD37C,1.550000*%
%ADD38RoundRect,0.100000X-0.100000X0.637500X-0.100000X-0.637500X0.100000X-0.637500X0.100000X0.637500X0*%
G04 APERTURE END LIST*
D10*
%TO.C,REF\u002A\u002A*%
X62210000Y-110775000D03*
%TD*%
D11*
%TO.C,R2*%
X119320000Y-101000000D03*
D12*
X129480000Y-101000000D03*
%TD*%
D11*
%TO.C,R4*%
X119100000Y-85780000D03*
D12*
X119100000Y-75620000D03*
%TD*%
D13*
%TO.C,U1*%
X162440000Y-88360000D03*
D14*
X159900000Y-90900000D03*
X162440000Y-90900000D03*
X159900000Y-93440000D03*
X162440000Y-93440000D03*
X159900000Y-95980000D03*
X162440000Y-98520000D03*
X162440000Y-95980000D03*
X164980000Y-98520000D03*
X164980000Y-95980000D03*
X167520000Y-98520000D03*
X167520000Y-95980000D03*
X170060000Y-98520000D03*
X170060000Y-95980000D03*
X172600000Y-98520000D03*
X172600000Y-95980000D03*
X175140000Y-98520000D03*
X177680000Y-95980000D03*
X175140000Y-95980000D03*
X177680000Y-93440000D03*
X175140000Y-93440000D03*
X177680000Y-90900000D03*
X175140000Y-90900000D03*
X177680000Y-88360000D03*
X175140000Y-88360000D03*
X177680000Y-85820000D03*
X175140000Y-85820000D03*
X177680000Y-83280000D03*
X175140000Y-80740000D03*
X175140000Y-83280000D03*
X172600000Y-80740000D03*
X172600000Y-83280000D03*
X170060000Y-80740000D03*
X170060000Y-83280000D03*
X167520000Y-80740000D03*
X167520000Y-83280000D03*
X164980000Y-80740000D03*
X164980000Y-83280000D03*
X162440000Y-80740000D03*
X159900000Y-83280000D03*
X162440000Y-83280000D03*
X159900000Y-85820000D03*
X162440000Y-85820000D03*
X159900000Y-88360000D03*
%TD*%
D15*
%TO.C,Q2*%
X143645000Y-78100000D03*
D16*
X143645000Y-80600000D03*
X143645000Y-83100000D03*
%TD*%
D17*
%TO.C,J4*%
X59660000Y-87120000D03*
D18*
X62200000Y-87120000D03*
X59660000Y-89660000D03*
X62200000Y-89660000D03*
X59660000Y-92200000D03*
X62200000Y-92200000D03*
X59660000Y-94740000D03*
X62200000Y-94740000D03*
X59660000Y-97280000D03*
X62200000Y-97280000D03*
%TD*%
D19*
%TO.C,J15*%
X93420000Y-71500000D03*
D20*
X95960000Y-71500000D03*
X98500000Y-71500000D03*
X101040000Y-71500000D03*
X103580000Y-71500000D03*
X106120000Y-71500000D03*
X108660000Y-71500000D03*
X111200000Y-71500000D03*
X113740000Y-71500000D03*
X116280000Y-71500000D03*
%TD*%
D10*
%TO.C,REF\u002A\u002A*%
X112910000Y-110975000D03*
%TD*%
D21*
%TO.C,J11*%
X160060000Y-109066151D03*
X162060000Y-110866151D03*
X162060000Y-116966151D03*
X160060000Y-114566151D03*
X162060000Y-105366151D03*
%TD*%
D10*
%TO.C,REF\u002A\u002A*%
X197110000Y-110775000D03*
%TD*%
D21*
%TO.C,J9*%
X150860000Y-109066151D03*
X152860000Y-110866151D03*
X152860000Y-116966151D03*
X150860000Y-114566151D03*
X152860000Y-105366151D03*
%TD*%
%TO.C,J10*%
X169410000Y-109066151D03*
X171410000Y-110866151D03*
X171410000Y-116966151D03*
X169410000Y-114566151D03*
X171410000Y-105366151D03*
%TD*%
D22*
%TO.C,RV3*%
X135200000Y-96600000D03*
X135200000Y-94060000D03*
X135200000Y-91520000D03*
%TD*%
%TO.C,RV4*%
X128100000Y-96600000D03*
X128100000Y-94060000D03*
X128100000Y-91520000D03*
%TD*%
%TO.C,RV1*%
X121000000Y-96600000D03*
X121000000Y-94060000D03*
X121000000Y-91520000D03*
%TD*%
D23*
%TO.C,J12*%
X185810000Y-109625000D03*
D11*
X183210000Y-109625000D03*
X187910000Y-109625000D03*
X181110000Y-109625000D03*
X187910000Y-106825000D03*
X181110000Y-106825000D03*
D24*
X177660000Y-112475000D03*
D25*
X184510000Y-113275000D03*
D24*
X191360000Y-112475000D03*
%TD*%
D26*
%TO.C,J5*%
X81195000Y-109155000D03*
X106195000Y-109155000D03*
D23*
X88155000Y-107735000D03*
D11*
X90925000Y-107735000D03*
X93695000Y-107735000D03*
X96465000Y-107735000D03*
X99235000Y-107735000D03*
X89540000Y-110575000D03*
X92310000Y-110575000D03*
X95080000Y-110575000D03*
X97850000Y-110575000D03*
%TD*%
D19*
%TO.C,J2*%
X194680000Y-73495000D03*
D20*
X197220000Y-73495000D03*
X194680000Y-76035000D03*
X197220000Y-76035000D03*
X194680000Y-78575000D03*
X197220000Y-78575000D03*
%TD*%
D15*
%TO.C,Q1*%
X122600000Y-78100000D03*
D16*
X122600000Y-80600000D03*
X122600000Y-83100000D03*
%TD*%
D11*
%TO.C,R6*%
X133145000Y-75640000D03*
D12*
X133145000Y-85800000D03*
%TD*%
D15*
%TO.C,Q3*%
X136645000Y-78100000D03*
D16*
X136645000Y-80600000D03*
X136645000Y-83100000D03*
%TD*%
D27*
%TO.C,RZ1*%
X85800000Y-84700000D03*
X88340000Y-84700000D03*
X90880000Y-84700000D03*
X93420000Y-84700000D03*
X95960000Y-84700000D03*
D28*
X98500000Y-84700000D03*
X101040000Y-84700000D03*
X103580000Y-84700000D03*
X106120000Y-84700000D03*
D29*
X106930000Y-87840000D03*
D30*
X106930000Y-90380000D03*
X106930000Y-92920000D03*
X106930000Y-95460000D03*
X106930000Y-98000000D03*
D28*
X106120000Y-101140000D03*
X103580000Y-101140000D03*
X101040000Y-101140000D03*
X98500000Y-101140000D03*
X85800000Y-101140000D03*
X88340000Y-101140000D03*
X90880000Y-101140000D03*
X95960000Y-101140000D03*
X93420000Y-101140000D03*
%TD*%
D19*
%TO.C,J8*%
X150140000Y-91491151D03*
D20*
X150140000Y-88951151D03*
X150140000Y-86411151D03*
X150140000Y-83871151D03*
%TD*%
D10*
%TO.C,REF\u002A\u002A*%
X60700000Y-65800000D03*
%TD*%
D31*
%TO.C,J14*%
X70942500Y-104475000D03*
D32*
X70942500Y-110475000D03*
D33*
X75642500Y-107475000D03*
%TD*%
D26*
%TO.C,J6*%
X119660000Y-113336151D03*
X144660000Y-113336151D03*
D23*
X136475000Y-111286151D03*
D11*
X134185000Y-111286151D03*
X131895000Y-111286151D03*
X129605000Y-111286151D03*
X127315000Y-111286151D03*
X137620000Y-113266151D03*
X135330000Y-113266151D03*
X133040000Y-113266151D03*
X130750000Y-113266151D03*
X128460000Y-113266151D03*
X136475000Y-115246151D03*
X134185000Y-115246151D03*
X131895000Y-115246151D03*
X129605000Y-115246151D03*
X127315000Y-115246151D03*
%TD*%
D19*
%TO.C,J7*%
X65180000Y-79400000D03*
D20*
X65180000Y-76860000D03*
X65180000Y-74320000D03*
X65180000Y-71780000D03*
%TD*%
D10*
%TO.C,REF\u002A\u002A*%
X197100000Y-65800000D03*
%TD*%
D11*
%TO.C,R5*%
X140145000Y-85800000D03*
D12*
X140145000Y-75640000D03*
%TD*%
D11*
%TO.C,R3*%
X129360000Y-71500000D03*
D12*
X119200000Y-71500000D03*
%TD*%
D15*
%TO.C,Q4*%
X129645000Y-78100000D03*
D16*
X129645000Y-80600000D03*
X129645000Y-83100000D03*
%TD*%
D22*
%TO.C,RV2*%
X142300000Y-96640000D03*
X142300000Y-94100000D03*
X142300000Y-91560000D03*
%TD*%
D19*
%TO.C,J3*%
X177650000Y-70710000D03*
D20*
X177650000Y-73250000D03*
X175110000Y-70710000D03*
X175110000Y-73250000D03*
X172570000Y-70710000D03*
X172570000Y-73250000D03*
X170030000Y-70710000D03*
X170030000Y-73250000D03*
X167490000Y-70710000D03*
X167490000Y-73250000D03*
X164950000Y-70710000D03*
X164950000Y-73250000D03*
X162410000Y-70710000D03*
X162410000Y-73250000D03*
X159870000Y-70710000D03*
X159870000Y-73250000D03*
%TD*%
D11*
%TO.C,R7*%
X126145000Y-75640000D03*
D12*
X126145000Y-85800000D03*
%TD*%
D34*
%TO.C,C6*%
X87435000Y-76012500D03*
X87435000Y-79137500D03*
%TD*%
D35*
%TO.C,J1*%
X182680000Y-61051151D03*
X93780000Y-61051151D03*
D36*
X177600000Y-63591151D03*
D37*
X175060000Y-63591151D03*
X172520000Y-63591151D03*
X169980000Y-63591151D03*
X167440000Y-63591151D03*
X164900000Y-63591151D03*
X162360000Y-63591151D03*
X159820000Y-63591151D03*
X157280000Y-63591151D03*
X154740000Y-63591151D03*
X152200000Y-63591151D03*
X149660000Y-63591151D03*
X147120000Y-63591151D03*
X144580000Y-63591151D03*
X142040000Y-63591151D03*
X139500000Y-63591151D03*
X136960000Y-63591151D03*
X134420000Y-63591151D03*
X131880000Y-63591151D03*
X129340000Y-63591151D03*
X126800000Y-63591151D03*
X124260000Y-63591151D03*
X121720000Y-63591151D03*
X119180000Y-63591151D03*
X116640000Y-63591151D03*
X114100000Y-63591151D03*
X111560000Y-63591151D03*
X109020000Y-63591151D03*
X106480000Y-63591151D03*
X103940000Y-63591151D03*
X101400000Y-63591151D03*
X98860000Y-63591151D03*
X177600000Y-66131151D03*
X175060000Y-66131151D03*
X172520000Y-66131151D03*
X169980000Y-66131151D03*
X167440000Y-66131151D03*
X164900000Y-66131151D03*
X162360000Y-66131151D03*
X159820000Y-66131151D03*
X157280000Y-66131151D03*
X154740000Y-66131151D03*
X152200000Y-66131151D03*
X149660000Y-66131151D03*
X147120000Y-66131151D03*
X144580000Y-66131151D03*
X142040000Y-66131151D03*
X139500000Y-66131151D03*
X136960000Y-66131151D03*
X134420000Y-66131151D03*
X131880000Y-66131151D03*
X129340000Y-66131151D03*
X126800000Y-66131151D03*
X124260000Y-66131151D03*
X121720000Y-66131151D03*
X119180000Y-66131151D03*
X116640000Y-66131151D03*
X114100000Y-66131151D03*
X111560000Y-66131151D03*
X109020000Y-66131151D03*
X106480000Y-66131151D03*
X103940000Y-66131151D03*
X101400000Y-66131151D03*
X98860000Y-66131151D03*
%TD*%
D38*
%TO.C,U3*%
X89510000Y-75375000D03*
X90160000Y-75375000D03*
X90810000Y-75375000D03*
X91460000Y-75375000D03*
X92110000Y-75375000D03*
X92760000Y-75375000D03*
X93410000Y-75375000D03*
X94060000Y-75375000D03*
X94710000Y-75375000D03*
X95360000Y-75375000D03*
X95360000Y-81100000D03*
X94710000Y-81100000D03*
X94060000Y-81100000D03*
X93410000Y-81100000D03*
X92760000Y-81100000D03*
X92110000Y-81100000D03*
X91460000Y-81100000D03*
X90810000Y-81100000D03*
X90160000Y-81100000D03*
X89510000Y-81100000D03*
%TD*%
M02*
