%TF.GenerationSoftware,KiCad,Pcbnew,7.0.9-134-g1fdf7d0cf4*%
%TF.CreationDate,2024-01-08T16:26:38+03:00*%
%TF.ProjectId,Pentagon128_InterfaceBoard,50656e74-6167-46f6-9e31-32385f496e74,rev?*%
%TF.SameCoordinates,Original*%
%TF.FileFunction,Paste,Top*%
%TF.FilePolarity,Positive*%
%FSLAX46Y46*%
G04 Gerber Fmt 4.6, Leading zero omitted, Abs format (unit mm)*
G04 Created by KiCad (PCBNEW 7.0.9-134-g1fdf7d0cf4) date 2024-01-08 16:26:38*
%MOMM*%
%LPD*%
G01*
G04 APERTURE LIST*
G04 Aperture macros list*
%AMRoundRect*
0 Rectangle with rounded corners*
0 $1 Rounding radius*
0 $2 $3 $4 $5 $6 $7 $8 $9 X,Y pos of 4 corners*
0 Add a 4 corners polygon primitive as box body*
4,1,4,$2,$3,$4,$5,$6,$7,$8,$9,$2,$3,0*
0 Add four circle primitives for the rounded corners*
1,1,$1+$1,$2,$3*
1,1,$1+$1,$4,$5*
1,1,$1+$1,$6,$7*
1,1,$1+$1,$8,$9*
0 Add four rect primitives between the rounded corners*
20,1,$1+$1,$2,$3,$4,$5,0*
20,1,$1+$1,$4,$5,$6,$7,0*
20,1,$1+$1,$6,$7,$8,$9,0*
20,1,$1+$1,$8,$9,$2,$3,0*%
G04 Aperture macros list end*
%ADD10RoundRect,0.250000X0.400000X0.625000X-0.400000X0.625000X-0.400000X-0.625000X0.400000X-0.625000X0*%
%ADD11RoundRect,0.250000X-0.625000X0.400000X-0.625000X-0.400000X0.625000X-0.400000X0.625000X0.400000X0*%
%ADD12R,1.600000X0.550000*%
%ADD13R,0.550000X1.600000*%
%ADD14RoundRect,0.250000X-0.650000X0.412500X-0.650000X-0.412500X0.650000X-0.412500X0.650000X0.412500X0*%
G04 APERTURE END LIST*
D10*
%TO.C,R8*%
X113750000Y-103350000D03*
X110650000Y-103350000D03*
%TD*%
%TO.C,R13*%
X113750000Y-88600000D03*
X110650000Y-88600000D03*
%TD*%
%TO.C,R11*%
X113750000Y-94500000D03*
X110650000Y-94500000D03*
%TD*%
D11*
%TO.C,R1*%
X194650000Y-82800000D03*
X194650000Y-85900000D03*
%TD*%
D12*
%TO.C,U2*%
X194100000Y-96500000D03*
X194100000Y-95700000D03*
X194100000Y-94900000D03*
X194100000Y-94100000D03*
X194100000Y-93300000D03*
X194100000Y-92500000D03*
X194100000Y-91700000D03*
X194100000Y-90900000D03*
D13*
X192650000Y-89450000D03*
X191850000Y-89450000D03*
X191050000Y-89450000D03*
X190250000Y-89450000D03*
X189450000Y-89450000D03*
X188650000Y-89450000D03*
X187850000Y-89450000D03*
X187050000Y-89450000D03*
D12*
X185600000Y-90900000D03*
X185600000Y-91700000D03*
X185600000Y-92500000D03*
X185600000Y-93300000D03*
X185600000Y-94100000D03*
X185600000Y-94900000D03*
X185600000Y-95700000D03*
X185600000Y-96500000D03*
D13*
X187050000Y-97950000D03*
X187850000Y-97950000D03*
X188650000Y-97950000D03*
X189450000Y-97950000D03*
X190250000Y-97950000D03*
X191050000Y-97950000D03*
X191850000Y-97950000D03*
X192650000Y-97950000D03*
%TD*%
D10*
%TO.C,R12*%
X113750000Y-91550000D03*
X110650000Y-91550000D03*
%TD*%
D14*
%TO.C,C2*%
X198200000Y-92075000D03*
X198200000Y-95200000D03*
%TD*%
%TO.C,C1*%
X198400000Y-82837500D03*
X198400000Y-85962500D03*
%TD*%
D10*
%TO.C,R15*%
X113750000Y-82700000D03*
X110650000Y-82700000D03*
%TD*%
%TO.C,R10*%
X113750000Y-97450000D03*
X110650000Y-97450000D03*
%TD*%
%TO.C,R9*%
X113750000Y-100400000D03*
X110650000Y-100400000D03*
%TD*%
%TO.C,R14*%
X113750000Y-85650000D03*
X110650000Y-85650000D03*
%TD*%
M02*
